<?xml version="1.0" encoding="utf-8"?>
<!-- Generator: Adobe Illustrator 24.3.0, SVG Export Plug-In . SVG Version: 6.00 Build 0)  -->
<svg version="1.1" id="Capa_1" xmlns="http://www.w3.org/2000/svg" xmlns:xlink="http://www.w3.org/1999/xlink" x="0px" y="0px"
	 viewBox="0 0 847.2 436.2" style="enable-background:new 0 0 847.2 436.2;" xml:space="preserve">
<style type="text/css">
	.st0{fill:#E6484B;}
</style>
<g>
	<path d="M99.7,367c-2.4,0-4.6-0.3-6.7-1c-2.1-0.7-4-1.7-5.7-3c-1.7-1.3-3.2-2.8-4.4-4.6c-1.2-1.8-2.2-3.7-2.8-5.9
		c-0.7-2.2-1-4.5-1-7s0.3-4.8,1-7c0.7-2.2,1.6-4.3,2.9-6.1c1.2-1.8,2.7-3.4,4.4-4.8c1.7-1.3,3.6-2.4,5.7-3.1
		c2.1-0.7,4.3-1.1,6.6-1.1c2.1,0,4.1,0.3,6,0.9c1.9,0.6,3.6,1.4,5.2,2.5c1.5,1.1,2.9,2.4,4,3.9c1.1,1.5,2,3.2,2.6,5.1l-8.4,2.1
		c-0.9-2-2.2-3.6-3.9-4.8c-1.7-1.1-3.6-1.7-5.7-1.7c-1.6,0-3.1,0.3-4.6,1c-1.4,0.7-2.6,1.7-3.7,2.9c-1,1.3-1.8,2.7-2.4,4.4
		c-0.6,1.7-0.9,3.6-0.9,5.6c0,2,0.3,3.8,0.8,5.5c0.6,1.7,1.4,3.1,2.4,4.3s2.3,2.2,3.7,2.8c1.4,0.7,3,1,4.7,1c2.2,0,4.1-0.6,5.8-1.7
		c1.7-1.1,3-2.7,4-4.8l8.4,2.1c-0.8,2.5-2.1,4.7-3.9,6.6c-1.8,1.9-3.9,3.3-6.3,4.3C105.3,366.5,102.6,367,99.7,367z M160.4,365.9
		l16.4-41.2h9.2l16.4,41.2h-8.9l-3.4-9h-17.8l-3.4,9H160.4z M175.1,349.5h12.4l-6.2-16.4L175.1,349.5z M248,365.9v-41.2h13.2
		c3.4,0,6.3,0.5,8.7,1.6c2.5,1.1,4.3,2.6,5.7,4.6c1.3,2,2,4.3,2,7c0,1.6-0.3,3.1-0.9,4.6c-0.6,1.5-1.4,2.8-2.4,3.9
		c-1,1.2-2.3,2.2-3.8,2.9l9.3,16.5h-9.5l-7.4-14.3c-0.7,0-1.5,0.1-2.4,0.1c-1.2,0-2.6-0.1-4.1-0.3v14.6H248z M256.6,332v12.1
		c0.7,0.1,1.5,0.2,2.2,0.3c0.7,0.1,1.5,0.1,2.3,0.1c2.5,0,4.4-0.6,5.7-1.7c1.4-1.1,2-2.6,2-4.6s-0.7-3.5-2-4.6
		c-1.4-1.1-3.3-1.6-5.7-1.6H256.6z M350.1,365.9v-41.2h13.2c3.4,0,6.3,0.5,8.7,1.6c2.5,1.1,4.3,2.6,5.7,4.6c1.3,2,2,4.3,2,7
		c0,1.6-0.3,3.1-0.9,4.6c-0.6,1.5-1.4,2.8-2.4,3.9c-1,1.2-2.3,2.2-3.8,2.9l9.3,16.5h-9.5l-7.4-14.3c-0.7,0-1.5,0.1-2.4,0.1
		c-1.2,0-2.6-0.1-4.1-0.3v14.6H350.1z M358.7,332v12.1c0.7,0.1,1.5,0.2,2.2,0.3c0.7,0.1,1.5,0.1,2.3,0.1c2.5,0,4.4-0.6,5.7-1.7
		c1.4-1.1,2-2.6,2-4.6s-0.7-3.5-2-4.6c-1.4-1.1-3.3-1.6-5.7-1.6H358.7z M427.7,365.9v-41.2h25.8v7.4H436v9h15.6v7.4H436v10.1h18v7.4
		H427.7z M501.9,365.9v-41.2h7.5l19.1,27.3v-27.3h8.4v41.2h-7.5l-19.1-27.3v27.3H501.9z M595.5,365.9v-33.5h-11.6v-7.7h31.8v7.7
		h-11.6v33.5H595.5z M654.9,365.9l16.4-41.2h9.2l16.4,41.2H688l-3.4-9h-17.8l-3.4,9H654.9z M669.5,349.5h12.4l-6.2-16.4L669.5,349.5
		z M742.5,365.9v-41.2h8.6v33.5H768v7.7H742.5z"/>
	<path class="st0" d="M633.7,237.1c1-5.1,1.2-25.4,0.3-30c-6.5-36.7-38.1-64.8-76.4-65.9c-0.8,0-1.6,0-2.3,0c-44.2,0-80,35.8-80,80
		c0,44.2,35.8,80,80,80c0.8,0,1.6,0,2.3,0c0.8,0,1.6,0,2.3,0c26.5,0,50-12.9,64.5-32.7l-34.3-17.2c-6.5,9.4-17.5,15.6-29.8,15.6
		c-0.9,0-1.8,0-2.6-0.1c-0.8,0.1-1.6,0.1-2.4,0.1c-16.9,0-30.2-13.2-31.1-29.8H633.7z M524.4,207.1c0.1-17.3,14.2-31.3,31.5-31.3
		s31.4,14,31.5,31.3H524.4z M323.1,213.2v88h-44v-88c0-15.5-12.5-28-28-28c-15.5,0-28,12.5-28,28v88h-44v-88c0-15.5-12.5-28-28-28
		c-15.5,0-28,12.5-28,28v88h-44v-88c0-29.8,18.1-55.4,44-66.3c8.3-3.5,17.3-5.5,26.9-5.6c0.4,0,0.8,0,1.1,0s0.8,0,1.1,0
		c9.5,0.1,18.6,2.1,26.9,5.6c8.2,3.5,15.7,8.4,22,14.5c6.3-6.1,13.8-11.1,22-14.5c8.3-3.5,17.3-5.5,26.9-5.6c0.4,0,0.8,0,1.1,0
		s0.8,0,1.1,0c9.5,0.1,18.6,2.1,26.9,5.6C304.9,157.7,323.1,183.3,323.1,213.2z M387.1,301.2h-44V139.4h44V301.2z M453.2,301.2h-44
		v-232h44V301.2z M389.1,93.4c0,13.3-10.7,24-24,24s-24-10.7-24-24s10.7-24,24-24S389.1,80.1,389.1,93.4z M768.1,255
		c-0.8,14.3-8.6,27.9-21.9,35.7c-0.5,0.3-1,0.5-1.4,0.8c-23.9,13.2-54,13.1-78.2-2.2c-0.4-0.3-0.9-0.5-1.3-0.8
		c-0.2-0.1-0.3-0.2-0.5-0.3c-7-4.8-12.9-11.4-16.7-19.7c-0.5-1.1-1-2.3-1.4-3.4l12.9-6.5l18.3-9.2l1.9-0.9c0.9,4.2,2.8,8.2,5.6,11.8
		c9.9,12.4,27.9,14.4,40.3,4.5c0.2-0.2,0.5-0.4,0.7-0.6c5.2-4.7,5.9-12.7,1.4-18.3c-1.6-2.1-3.8-3.5-6.1-4.3h0
		c-0.4-0.1-0.7-0.2-1.1-0.3l-0.3-0.1l-16.5-4.8l-20-5.7c0,0,0-0.1,0.1-0.1c-0.6-0.1-1.2-0.2-1.9-0.4h0v0l-0.1,0l-3.3-1
		c-3.5-1.1-6.8-2.7-9.7-4.6c-4.3-2.8-8-6.2-11-10.2c-6.1-8.2-9.3-18.5-8.3-29.1c0.2-2.5,0.7-5,1.3-7.4c1-3.7,2.5-7.1,4.3-10.3
		c2.5-4.2,5.6-7.9,9.2-11c0.1-0.1,0.1-0.1,0.2-0.2c0.5-0.4,1-0.8,1.5-1.2c0.5-0.4,1-0.8,1.5-1.1c0.1-0.1,0.1-0.1,0.2-0.2
		c25.7-18.4,59.8-16.5,83.1,2.6c4.2,3.4,7.6,7.4,10.1,11.8c1.5,2.6,2.7,5.3,3.7,8.1L733.7,192l-2.3,1.1
		c-1.3-10.3-9.1-19.1-19.9-21.1c-7.6-1.4-15.1,0.8-20.6,5.5c-0.3,0.2-0.6,0.5-0.9,0.8c-1.7,1.7-3,4-3.4,6.6
		c-1.1,6.2,2.8,12.2,8.8,13.7l15.9,4.6l17.2,4.9l0.6,0.2l5.1,1.5l0.3,0.1l2.2,0.6c3.5,1.1,6.8,2.6,9.9,4.5c2.7,1.7,5.3,3.6,7.7,5.8
		c3.1,3,5.9,6.5,8.1,10.4c2.2,3.9,3.8,8,4.7,12.2C768,247.2,768.3,251.1,768.1,255z"/>
</g>
</svg>
